<svg width="32" height="32" viewBox="0 0 32 32" fill="none" xmlns="http://www.w3.org/2000/svg"><path fill-rule="evenodd" clip-rule="evenodd" d="M22.428 7h3.857a2.579 2.579 0 0 1 2.572 2.571V25a2.579 2.579 0 0 1-2.572 2.571H5.715A2.579 2.579 0 0 1 3.142 25V9.571A2.579 2.579 0 0 1 5.714 7h3.857l1.582-1.736a2.609 2.609 0 0 1 1.902-.835h5.89c.72 0 1.413.308 1.89.835L22.427 7zM9.571 17.286A6.428 6.428 0 0 0 16 23.714a6.428 6.428 0 1 0-6.429-6.429zM16 21.143a3.857 3.857 0 1 0 0-7.714 3.857 3.857 0 0 0 0 7.714z" fill="#6C727C"/></svg>