<svg xmlns="http://www.w3.org/2000/svg" width="23" height="23" viewBox="0 0 23 23">
    <g fill="none" fill-rule="evenodd" transform="translate(.455 .455)">
        <circle cx="11.045" cy="11.045" r="11.045" fill="#1BD741"/>
        <path fill="#FFF" d="M8.988 14.527l.196.12c.833.508 1.791.776 2.772.776 2.938 0 5.328-2.39 5.328-5.326 0-2.937-2.39-5.327-5.328-5.327s-5.328 2.39-5.328 5.327c0 1.023.29 2.017.841 2.874l.132.206-.518 1.84 1.905-.49zm-3.465 2.015l.9-3.195c-.579-.983-.884-2.102-.884-3.25 0-3.537 2.879-6.415 6.417-6.415s6.417 2.878 6.417 6.415-2.879 6.415-6.417 6.415c-1.102 0-2.182-.283-3.137-.818l-3.296.848z"/>
        <path fill="#FFF" d="M10.64 7.387l-.414-.023c-.13-.007-.258.038-.357.125-.2.178-.522.522-.621.971-.147.67.08 1.488.67 2.308.588.82 1.686 2.13 3.626 2.69.626.18 1.118.059 1.497-.189.301-.196.508-.511.583-.867l.066-.316c.021-.1-.029-.202-.12-.245l-1.402-.659c-.09-.042-.199-.015-.26.065l-.55.728c-.041.055-.113.077-.177.054-.377-.135-1.639-.674-2.331-2.036-.03-.059-.023-.13.02-.18l.525-.621c.054-.064.068-.153.035-.23l-.604-1.442c-.032-.077-.104-.128-.186-.133"/>
    </g>
</svg>
